<?xml version="1.0" encoding="utf-8"?>
<!-- Generator: Adobe Illustrator 16.0.0, SVG Export Plug-In . SVG Version: 6.00 Build 0)  -->
<!DOCTYPE svg PUBLIC "-//W3C//DTD SVG 1.1//EN" "http://www.w3.org/Graphics/SVG/1.1/DTD/svg11.dtd">
<svg version="1.1" id="Layer_1" xmlns="http://www.w3.org/2000/svg" xmlns:xlink="http://www.w3.org/1999/xlink" x="0px" y="0px"
	 width="256px" height="256px" viewBox="0 0 256 256" enable-background="new 0 0 256 256" xml:space="preserve">
<path fill="#231F20" d="M191.327,116.195c-0.718-1.049-1.767-1.716-3.033-1.93c-0.851-0.143-1.604-0.212-2.312-0.212
	c-0.905,0-1.729,0.118-2.518,0.356c0.161-1.481,0.327-2.899,0.487-4.266c0.491-4.182,0.916-7.792,0.944-11.283
	c0.127-15.188-5.41-29.207-15.592-39.475c-10.414-10.502-24.979-16.286-41.01-16.286c-16.031,0-30.594,5.784-41.008,16.286
	C77.104,69.653,71.567,83.673,71.695,98.86c0.029,3.49,0.454,7.102,0.945,11.282c0.168,1.433,0.343,2.922,0.511,4.482
	c-0.979-0.387-1.991-0.571-3.135-0.571c-0.706,0-1.461,0.069-2.311,0.212c-1.267,0.214-2.315,0.881-3.033,1.93
	c-2.213,3.237-0.912,9.528,0.737,17.493c0.24,1.16,0.483,2.332,0.715,3.504c0.601,3.039,0.991,6.24,1.335,9.065
	c0.729,5.987,1.084,8.461,2.583,9.569c1.007,0.744,2.209,1.123,3.574,1.123c0,0,0,0,0.001,0c0.153,0,0.312-0.014,0.469-0.023
	c0.049,1.922,0.156,3.881,0.363,6.084c0.602,6.426,15.389,22.485,21.718,29.092c2.259,2.357,4.279,4.649,6.233,6.866
	c6.862,7.784,12.283,13.933,20.407,13.933h16.125c7.4,0,11.182-4.887,15.969-11.074c2.109-2.729,4.502-5.82,7.584-9.037
	c8.826-9.213,19.108-23.905,19.66-29.777c0.205-2.197,0.312-4.148,0.361-6.064c1.312-0.022,2.473-0.396,3.449-1.118
	c1.5-1.108,1.854-3.583,2.584-9.57c0.345-2.825,0.732-6.028,1.336-9.065c0.23-1.172,0.475-2.346,0.714-3.506
	C192.238,125.722,193.54,119.432,191.327,116.195z M74.218,142.912c-0.002,0.184-0.004,0.363-0.007,0.545
	c-0.004,0.359-0.009,0.713-0.014,1.061c-0.003,0.172-0.005,0.344-0.008,0.514c-0.005,0.34-0.011,0.672-0.017,1
	c-0.014,0.816-0.029,1.599-0.043,2.351c-0.007,0.356-0.014,0.706-0.02,1.052c-0.002,0.127-0.004,0.252-0.007,0.379
	c-0.004,0.225-0.008,0.448-0.012,0.67c-0.003,0.149-0.005,0.3-0.007,0.447c-0.003,0.191-0.006,0.383-0.009,0.569
	c-0.002,0.153-0.004,0.306-0.006,0.456c-0.002,0.189-0.004,0.379-0.006,0.566c-0.001,0.095-0.003,0.191-0.003,0.285
	c-0.154,0.02-0.301,0.027-0.441,0.027l0,0c-0.375,0-0.685-0.066-0.941-0.201c-0.411-0.967-0.808-4.226-1.13-6.872
	c-0.353-2.896-0.752-6.182-1.383-9.368c-0.234-1.184-0.479-2.369-0.722-3.541c-1.157-5.585-2.596-12.541-1.37-14.333
	c0.081-0.118,0.141-0.165,0.32-0.195c0.62-0.105,1.152-0.156,1.626-0.156c1.16,0,1.948,0.288,3.013,1.102
	c0.196,0.149,0.401,0.317,0.613,0.502c0.115,1.417,0.208,2.806,0.284,4.182c0.002,0.042,0.004,0.083,0.007,0.125
	c0.034,0.632,0.062,1.261,0.088,1.89c0.005,0.123,0.01,0.247,0.015,0.369c0.024,0.628,0.045,1.255,0.061,1.884
	c0,0.001,0,0.002,0,0.004c0.105,4.092,0.142,7.54,0.142,10.528C74.241,140.246,74.232,141.625,74.218,142.912z M90.211,62.283
	c9.635-9.716,23.161-15.068,38.085-15.068c14.927,0,28.451,5.352,38.086,15.068c9.403,9.482,14.519,22.46,14.397,36.542
	c-0.026,3.268-0.438,6.775-0.916,10.837c-0.274,2.34-0.565,4.824-0.819,7.534l-0.003,0.002l-0.048,0.543
	c-0.065,0.719-0.127,1.458-0.187,2.21h-1.332v-5.825h-42.42v5.825h-13.148v-5.825h-42.42v5.825h-1.702
	c-0.053-0.672-0.107-1.334-0.165-1.978l-0.011-0.127h-0.001c-0.268-2.966-0.583-5.66-0.88-8.186
	c-0.478-4.062-0.89-7.57-0.917-10.836C75.694,84.743,80.809,71.766,90.211,62.283z M173.359,118.244v15.305h-34.188v-15.305H173.359
	z M117.792,118.244v15.305H83.604v-15.305H117.792z M178.424,154.049c0.002,2.797-0.083,5.442-0.377,8.577
	c-0.143,1.521-1.753,5.328-5.845,11.455c-3.665,5.485-8.29,11.269-12.69,15.858c-3.232,3.375-5.693,6.558-7.867,9.367
	c-4.572,5.909-7.33,9.478-12.713,9.478h-16.124c-6.266,0-10.902-5.259-17.319-12.539c-1.981-2.247-4.03-4.571-6.349-6.99
	c-15.834-16.528-20.394-24.515-20.592-26.629c-0.388-4.136-0.412-7.421-0.354-11.324c0-0.018,0.001-0.034,0.001-0.052
	c0.004-0.268,0.009-0.537,0.013-0.811c0-0.051,0.001-0.1,0.002-0.149c0.004-0.253,0.009-0.511,0.014-0.771
	c0-0.051,0.001-0.099,0.002-0.148c0.006-0.299,0.011-0.602,0.018-0.91c0.012-0.605,0.023-1.23,0.036-1.88
	c0.005-0.324,0.012-0.654,0.017-0.99c0.014-0.84,0.027-1.719,0.037-2.646c0.014-1.299,0.022-2.688,0.022-4.196
	c-0.001-3.015-0.038-6.496-0.144-10.628c0-0.001,0-0.003,0-0.004c-0.017-0.678-0.041-1.337-0.065-1.988h1.34v11.538h42.42v-11.538
	h13.147v11.538h42.42v-11.538h0.971c-0.025,0.652-0.049,1.313-0.065,1.992c-0.241,9.445-0.126,15.486-0.032,20.341
	c0.021,1.113,0.043,2.149,0.057,3.146c0,0.045,0,0.093,0.002,0.139c0.003,0.207,0.005,0.412,0.008,0.615
	c0.001,0.084,0.001,0.166,0.002,0.25c0.002,0.175,0.003,0.35,0.005,0.521c0.001,0.254,0.003,0.507,0.003,0.757
	C178.424,153.941,178.424,153.995,178.424,154.049z M186.559,132.852c-0.242,1.172-0.486,2.357-0.722,3.541
	c-0.631,3.188-1.03,6.472-1.384,9.367c-0.322,2.647-0.719,5.906-1.129,6.873c-0.221,0.116-0.481,0.182-0.789,0.197
	c-0.003-0.346-0.008-0.694-0.012-1.048c0-0.009,0-0.019,0-0.026c-0.016-1.074-0.037-2.188-0.06-3.374
	c-0.093-4.813-0.208-10.803,0.031-20.158c0.019-0.672,0.04-1.345,0.065-2.02c0.006-0.105,0.01-0.211,0.014-0.316
	c0.027-0.668,0.061-1.339,0.097-2.014c0.004-0.062,0.007-0.123,0.011-0.185c0.082-1.458,0.186-2.931,0.312-4.438
	c1.052-0.8,1.837-1.083,2.988-1.083c0.474,0,1.004,0.051,1.625,0.156c0.18,0.03,0.24,0.077,0.32,0.195
	C189.154,120.311,187.716,127.264,186.559,132.852z"/>
</svg>
